<?xml version="1.0"?>
<svg version="1.1" xmlns="http://www.w3.org/2000/svg" xmlns:xlink="http://www.w3.org/1999/xlink" width="373" height="347">
    <desc iVinci="yes" version="4.6" gridStep="20" showGrid="no" snapToGrid="no" codePlatform="0"/>
    <g id="Layer1" name="Layer 1" opacity="1">
        <g id="Shape1">
            <desc shapeID="1" type="0" basicInfo-basicType="0" basicInfo-roundedRectRadius="12" basicInfo-polygonSides="6" basicInfo-starPoints="5" bounding="rect(-73.1816,-75.0074,146.363,150.015)" text="" font-familyName="" font-pixelSize="20" font-bold="0" font-underline="0" font-alignment="1" strokeStyle="0" markerStart="0" markerEnd="0" shadowEnabled="0" shadowOffsetX="0" shadowOffsetY="2" shadowBlur="4" shadowOpacity="160" blurEnabled="0" blurRadius="4" transform="matrix(2.5,0,0,2.3132,182.772,173.992)" pers-center="0,0" pers-size="0,0" pers-start="0,0" pers-end="0,0" locked="0" mesh="" flag=""/>
            <path id="shapePath1" d="M132.318,7.2276 C119.068,13.4732 99.818,30.1283 87.818,46.089 C76.318,60.894 71.068,80.325 71.068,109.009 C71.068,134.454 71.568,136.767 82.068,164.988 L93.068,194.597 L87.068,198.992 C78.818,205.469 71.318,205.007 67.8184,198.067 C65.8184,194.135 62.8184,192.284 58.8184,192.284 C50.5684,192.284 30.0684,205.469 21.0684,216.804 C17.0684,222.124 10.5684,228.139 6.81841,230.221 L-0.18161,234.153 L-0.18161,290.826 L33.8184,346.806 L148.068,347.269 L296.318,347.269 L296.818,340.56 C297.068,337.091 299.068,329.92 301.068,325.062 L304.818,316.04 L304.068,331.77 L303.568,347.5 L319.568,346.806 C337.568,346.112 336.568,346.806 345.568,322.98 C362.068,279.492 367.818,258.673 365.068,253.121 C362.318,247.801 362.068,248.032 354.068,262.143 C349.568,270.239 344.318,280.417 342.568,284.812 C337.818,296.378 333.568,305.862 330.068,312.571 L327.068,318.354 L328.568,312.571 C336.818,276.716 339.068,254.972 336.068,238.779 C334.818,231.146 334.068,230.452 325.818,230.452 C315.818,230.452 314.818,231.608 305.818,253.121 C302.068,261.68 299.818,272.09 299.818,279.26 C299.818,303.318 293.318,308.407 279.068,295.916 L271.818,289.67 L279.818,280.186 C284.068,275.097 288.818,270.933 290.068,270.933 C291.318,270.933 292.318,269.776 292.318,268.62 C292.318,267.232 290.068,266.306 287.568,266.306 C279.818,266.306 279.318,262.605 286.318,254.972 C291.318,249.42 291.818,247.801 288.818,247.801 C286.568,247.801 284.818,246.413 284.818,244.562 C284.818,239.242 297.318,226.982 302.568,226.982 C308.568,226.982 308.568,227.907 301.068,213.565 C297.568,206.857 294.818,200.38 294.818,199.224 C294.818,197.836 291.818,192.747 288.318,187.658 C282.818,180.024 282.068,176.554 282.818,165.913 C283.568,152.266 281.568,148.796 278.818,158.974 C277.568,163.369 276.068,164.525 273.068,163.6 C270.818,162.675 268.068,163.369 267.068,164.988 C266.068,166.607 264.068,167.07 263.068,165.913 C262.068,164.988 263.068,162.906 265.568,161.287 C269.568,158.28 269.568,158.049 265.068,152.728 C257.568,143.707 256.818,138.155 262.318,134.454 C267.09,131.243 267.068,130.984 259.318,123.582 C252.068,116.642 251.568,115.486 254.818,110.165 C258.318,103.92 263.568,102.532 265.568,107.158 C266.318,109.24 268.068,108.546 271.068,104.845 C273.318,102.069 276.818,99.756 279.068,99.756 C281.318,99.756 282.318,98.368 281.568,96.286 C280.568,94.435 281.068,92.354 282.318,91.66 C285.568,89.809 285.568,77.318 282.318,75.467 C278.568,73.385 279.318,69.684 283.318,71.072 C289.318,73.154 290.568,63.438 285.318,56.268 C282.818,52.798 279.818,47.246 278.818,43.776 C278.068,40.075 274.318,36.143 270.318,34.5234 C266.568,32.9041 263.568,29.897 263.568,28.0464 C263.568,23.6513 240.068,9.07822 225.068,3.98911 C216.318,1.2133 205.318,0.28801 179.818,0.519302 C147.818,0.750626 145.318,0.981918 132.318,7.2276 M275.818,73.385 C276.568,75.236 276.318,76.161 274.818,75.467 C273.318,74.773 272.318,73.154 272.318,71.766 C272.318,68.527 274.068,69.221 275.818,73.385 M229.818,81.481 C229.818,82.638 227.568,83.563 224.818,83.563 C220.068,83.563 218.318,81.019 221.318,78.243 C223.318,76.392 229.818,78.937 229.818,81.481 M251.068,83.563 C251.818,84.72 251.318,85.877 250.068,85.877 C248.568,85.877 247.318,84.72 247.318,83.563 C247.318,82.175 247.818,81.25 248.318,81.25 C249.068,81.25 250.318,82.175 251.068,83.563 Z" style="stroke:none;fill-rule:evenodd;fill:#4e4e4e;fill-opacity:1;"/>
        </g>
        <g id="Shape2">
            <desc shapeID="2" type="0" basicInfo-basicType="0" basicInfo-roundedRectRadius="12" basicInfo-polygonSides="6" basicInfo-starPoints="5" bounding="rect(-6.45,-9.50005,12.9,19.0001)" text="" font-familyName="" font-pixelSize="20" font-bold="0" font-underline="0" font-alignment="1" strokeStyle="0" markerStart="0" markerEnd="0" shadowEnabled="0" shadowOffsetX="0" shadowOffsetY="2" shadowBlur="4" shadowOpacity="160" blurEnabled="0" blurRadius="4" transform="matrix(2.5,0,0,2.3132,356.693,324.294)" pers-center="0,0" pers-size="0,0" pers-start="0,0" pers-end="0,0" locked="0" mesh="" flag=""/>
            <path id="shapePath2" d="M370.318,307.176 C370.318,313.421 357.318,338.866 356.068,335.165 C354.068,330.308 349.318,332.158 344.818,339.329 L340.568,346.269 L356.568,346.269 L372.818,346.269 L372.818,324.293 C372.818,312.265 372.318,302.318 371.568,302.318 C370.818,302.318 370.318,304.4 370.318,307.176 Z" style="stroke:none;fill-rule:evenodd;fill:#4e4e4e;fill-opacity:1;"/>
        </g>
        <g id="Shape3">
            <desc shapeID="3" type="0" basicInfo-basicType="0" basicInfo-roundedRectRadius="12" basicInfo-polygonSides="6" basicInfo-starPoints="5" bounding="rect(0,0,0,0)" text="" font-familyName="Helvetica" font-pixelSize="20" font-bold="0" font-underline="0" font-alignment="1" strokeStyle="0" markerStart="0" markerEnd="0" shadowEnabled="0" shadowOffsetX="0" shadowOffsetY="2" shadowBlur="4" shadowOpacity="160" blurEnabled="0" blurRadius="4" transform="matrix(1,0,0,1,41.5,388.5)" pers-center="0,0" pers-size="0,0" pers-start="0,0" pers-end="0,0" locked="0" mesh="" flag=""/>
            <path id="shapePath3" d="M41.5,388.5 Z" style="stroke:#01172f;stroke-opacity:1;stroke-width:5;stroke-linejoin:miter;stroke-miterlimit:2;stroke-linecap:round;fill:none;"/>
        </g>
        <g id="Shape4">
            <desc shapeID="4" type="0" basicInfo-basicType="1" basicInfo-roundedRectRadius="12" basicInfo-polygonSides="6" basicInfo-starPoints="5" bounding="rect(-29,-45.5,58,91)" text="" font-familyName="Helvetica" font-pixelSize="20" font-bold="0" font-underline="0" font-alignment="1" strokeStyle="0" markerStart="0" markerEnd="0" shadowEnabled="0" shadowOffsetX="0" shadowOffsetY="2" shadowBlur="4" shadowOpacity="160" blurEnabled="0" blurRadius="4" transform="matrix(1,0,0,1,28.5,302)" pers-center="0,0" pers-size="0,0" pers-start="0,0" pers-end="0,0" locked="0" mesh="" flag=""/>
            <path id="shapePath4" d="M-0.5,256.5 L57.5,256.5 L57.5,347.5 L-0.5,347.5 L-0.5,256.5 Z" style="stroke:none;fill-rule:evenodd;fill:#4e4e4e;fill-opacity:1;"/>
        </g>
    </g>
</svg>
