<?xml version="1.0"?>
<svg version="1.1" xmlns="http://www.w3.org/2000/svg" xmlns:xlink="http://www.w3.org/1999/xlink" width="650" height="400">
    <desc iVinci="yes" version="4.6" gridStep="1" showGrid="no" snapToGrid="no" codePlatform="0" markedExportShape="2"/>
    <g id="Layer1" name="Layer 1" opacity="1">
        <g id="Shape1">
            <desc shapeID="1" type="2" basicInfo-basicType="0" basicInfo-roundedRectRadius="12" basicInfo-polygonSides="6" basicInfo-starPoints="5" bounding="rect(-214.5,-110.5,429,221)" text="{A:G}" font-familyName="American Typewriter" font-pixelSize="225" font-bold="0" font-underline="0" font-alignment="1" strokeStyle="0" markerStart="0" markerEnd="0" shadowEnabled="0" shadowOffsetX="0" shadowOffsetY="2" shadowBlur="4" shadowOpacity="160" blurEnabled="0" blurRadius="4" transform="matrix(1,0,0,1,328.062,180.599)" pers-center="0,0" pers-size="0,0" pers-start="0,0" pers-end="0,0" locked="0" mesh="" flag=""/>
            <path id="shapePath1" d="M82.937,172.264 C82.937,179.614 81.962,185.127 80.012,188.802 C78.062,192.477 74.462,195.739 69.212,198.589 C74.312,201.289 77.8745,204.627 79.8995,208.602 C81.9245,212.577 82.937,218.089 82.937,225.139 L82.937,261.364 C82.937,269.614 84.362,275.052 87.212,277.677 C90.062,280.302 95.837,281.614 104.537,281.614 L104.537,295.789 L98.012,295.789 C86.612,295.789 78.512,293.277 73.712,288.252 C68.912,283.227 66.512,274.714 66.512,262.714 L66.512,225.589 C66.512,219.139 65.537,214.339 63.587,211.189 C61.637,208.039 58.337,205.864 53.687,204.664 L53.687,191.389 C62.237,188.989 66.512,182.314 66.512,171.364 L66.512,131.764 C66.512,120.814 69.0245,112.939 74.0495,108.139 C79.0745,103.339 87.137,100.939 98.237,100.939 L104.537,100.939 L104.537,115.114 C95.837,115.264 90.062,116.614 87.212,119.164 C84.362,121.714 82.937,126.889 82.937,134.689 L82.937,172.264 M251.237,228.064 L243.137,206.014 C242.237,203.614 241.3,202.114 240.325,201.514 C239.35,200.914 237.362,200.614 234.362,200.614 L194.312,200.614 C191.312,200.614 189.25,201.139 188.125,202.189 C187,203.239 185.537,206.089 183.737,210.739 L177.212,228.064 C176.612,229.714 176.312,231.289 176.312,232.789 C176.312,237.589 179.237,239.989 185.087,239.989 C186.587,239.989 188.725,239.839 191.5,239.539 C194.275,239.239 196.337,239.089 197.687,239.089 C203.837,239.089 206.912,241.714 206.912,246.964 C206.912,251.914 203.537,254.389 196.787,254.389 C195.587,254.389 193.937,254.239 191.837,253.939 L180.587,252.364 C178.487,252.064 175.037,251.914 170.237,251.914 C164.987,251.914 161.312,252.064 159.212,252.364 L149.762,253.714 C145.562,254.314 142.487,254.614 140.537,254.614 C134.687,254.614 131.762,252.139 131.762,247.189 C131.762,241.939 134.612,239.314 140.312,239.314 C141.512,239.314 142.412,239.389 143.012,239.539 L145.937,239.539 C149.987,239.539 153.062,237.964 155.162,234.814 C156.062,233.614 157.562,230.089 159.662,224.239 L201.512,111.064 C203.912,104.764 208.637,101.614 215.687,101.614 C222.587,101.614 227.162,104.764 229.412,111.064 L269.687,222.664 C272.237,229.714 274.562,234.364 276.662,236.614 C278.762,238.864 281.762,239.989 285.662,239.989 C286.862,239.989 287.762,239.914 288.362,239.764 C292.562,239.464 294.662,239.314 294.662,239.314 C300.362,239.314 303.212,241.714 303.212,246.514 C303.212,251.614 300.362,254.164 294.662,254.164 C293.012,254.164 290.837,254.014 288.137,253.714 C278.687,252.664 271.637,252.139 266.987,252.139 C261.437,252.139 252.437,252.739 239.987,253.939 C236.837,254.239 234.437,254.389 232.787,254.389 C226.787,254.389 223.787,251.839 223.787,246.739 C223.787,241.639 227.087,239.089 233.687,239.089 C235.037,239.089 237.025,239.239 239.65,239.539 C242.275,239.839 244.262,239.989 245.612,239.989 C250.562,239.989 253.037,237.964 253.037,233.914 C253.037,233.314 252.437,231.364 251.237,228.064 M235.037,182.164 L214.787,120.064 L194.087,182.164 C193.787,183.064 193.637,183.589 193.637,183.739 C193.637,185.089 194.762,185.764 197.012,185.764 L232.787,185.764 C234.587,185.764 235.487,185.164 235.487,183.964 C235.487,183.664 235.337,183.064 235.037,182.164 M332.006,257.314 C328.106,257.314 324.806,255.927 322.106,253.152 C319.406,250.377 318.056,247.039 318.056,243.139 C318.056,239.239 319.406,235.902 322.106,233.127 C324.806,230.352 328.106,228.964 332.006,228.964 C335.906,228.964 339.206,230.352 341.906,233.127 C344.606,235.902 345.956,239.239 345.956,243.139 C345.956,247.039 344.606,250.377 341.906,253.152 C339.206,255.927 335.906,257.314 332.006,257.314 M332.006,181.264 C328.106,181.264 324.806,179.877 322.106,177.102 C319.406,174.327 318.056,170.989 318.056,167.089 C318.056,163.189 319.406,159.852 322.106,157.077 C324.806,154.302 328.106,152.914 332.006,152.914 C335.906,152.914 339.206,154.302 341.906,157.077 C344.606,159.852 345.956,163.189 345.956,167.089 C345.956,170.989 344.606,174.327 341.906,177.102 C339.206,179.877 335.906,181.264 332.006,181.264 M438.203,98.4644 C453.203,98.4644 466.778,104.089 478.928,115.339 C478.628,113.239 478.478,112.039 478.478,111.739 C478.178,108.739 478.028,107.089 478.028,106.789 C478.028,101.839 480.503,99.3644 485.453,99.3644 C490.853,99.3644 493.553,102.589 493.553,109.039 C493.553,111.139 493.478,112.714 493.328,113.764 L491.753,124.564 C491.303,127.714 491.078,131.089 491.078,134.689 C491.078,137.539 491.378,143.614 491.978,152.914 C491.978,152.914 491.978,153.589 491.978,154.939 C491.978,161.689 489.203,165.064 483.653,165.064 C478.403,165.064 475.778,161.389 475.778,154.039 L475.778,147.289 C475.778,136.939 472.365,128.764 465.54,122.764 C458.715,116.764 449.528,113.764 437.978,113.764 C423.428,113.764 412.028,119.389 403.778,130.639 C395.528,141.889 391.403,157.339 391.403,176.989 C391.403,197.839 395.64,214.114 404.115,225.814 C412.59,237.514 424.328,243.364 439.328,243.364 C450.878,243.364 459.803,239.989 466.103,233.239 C472.403,226.489 475.553,216.889 475.553,204.439 C475.553,199.339 474.69,195.777 472.965,193.752 C471.24,191.727 468.203,190.714 463.853,190.714 C462.653,190.714 460.928,190.789 458.678,190.939 C456.428,191.089 454.703,191.164 453.503,191.164 C446.303,191.164 442.703,188.614 442.703,183.514 C442.703,178.264 445.778,175.639 451.928,175.639 C453.878,175.639 456.053,175.789 458.453,176.089 C467.903,177.289 475.478,177.889 481.178,177.889 C488.528,177.889 496.328,177.214 504.578,175.864 C506.378,175.564 508.403,175.414 510.653,175.414 C516.653,175.414 519.653,177.889 519.653,182.839 C519.653,184.939 518.865,186.739 517.29,188.239 C515.715,189.739 513.878,190.489 511.778,190.489 C509.978,190.489 508.628,190.414 507.728,190.264 C507.428,190.264 506.903,190.189 506.153,190.039 C505.403,190.039 504.803,190.039 504.353,190.039 C497.753,190.039 494.453,197.389 494.453,212.089 L494.453,230.089 C494.453,233.989 494.603,237.514 494.903,240.664 C495.203,243.814 495.353,246.289 495.353,248.089 C495.353,254.239 492.653,257.314 487.253,257.314 C482.003,257.314 479.378,254.689 479.378,249.439 C479.378,249.439 479.528,247.639 479.828,244.039 C479.978,242.689 480.128,240.364 480.278,237.064 C476.828,241.714 474.128,244.939 472.178,246.739 C463.478,254.539 451.403,258.439 435.953,258.439 C416.603,258.439 401.003,251.239 389.153,236.839 C377.303,222.439 371.378,203.614 371.378,180.364 C371.378,155.464 377.415,135.589 389.49,120.739 C401.565,105.889 417.803,98.4644 438.203,98.4644 M575.678,224.464 C575.678,217.264 576.653,211.789 578.603,208.039 C580.553,204.289 584.153,200.989 589.403,198.139 C584.303,195.439 580.74,192.102 578.715,188.127 C576.69,184.152 575.678,178.639 575.678,171.589 L575.678,135.364 C575.678,127.114 574.253,121.677 571.403,119.052 C568.553,116.427 562.778,115.114 554.078,115.114 L554.078,100.939 L560.378,100.939 C571.778,100.939 579.915,103.452 584.79,108.477 C589.665,113.502 592.103,122.014 592.103,134.014 L592.103,171.139 C592.103,182.989 596.378,189.964 604.928,192.064 L604.928,205.339 C596.378,207.739 592.103,214.414 592.103,225.364 L592.103,264.964 C592.103,275.914 589.628,283.789 584.678,288.589 C579.728,293.389 571.628,295.789 560.378,295.789 L554.078,295.789 L554.078,281.614 C562.778,281.464 568.553,280.114 571.403,277.564 C574.253,275.014 575.678,269.839 575.678,262.039 L575.678,224.464 Z" style="stroke:none;fill-rule:nonzero;fill:#4e4e4e;fill-opacity:1;"/>
        </g>
        <g id="Shape2">
            <desc shapeID="2" type="0" basicInfo-basicType="0" basicInfo-roundedRectRadius="12" basicInfo-polygonSides="6" basicInfo-starPoints="5" bounding="rect(-74.5001,-53.5,149,107)" text="" font-familyName="American Typewriter" font-pixelSize="260" font-bold="0" font-underline="0" font-alignment="1" strokeStyle="0" markerStart="0" markerEnd="0" shadowEnabled="0" shadowOffsetX="0" shadowOffsetY="2" shadowBlur="4" shadowOpacity="160" blurEnabled="0" blurRadius="4" transform="matrix(4.31543,0,0,3.68156,325,200)" pers-center="0,0" pers-size="0,0" pers-start="0,0" pers-end="0,0" locked="0" mesh="" flag=""/>
            <path id="shapePath2" d="M3.50012,47.2152 C3.50012,22.816 26.6851,3.03653 55.2853,3.03653 L594.715,3.03653 C623.315,3.03653 646.5,22.816 646.5,47.2152 L646.5,352.785 C646.5,377.184 623.315,396.963 594.715,396.963 L55.2853,396.963 C26.6851,396.963 3.50012,377.184 3.50012,352.785 L3.50012,47.2152 Z" style="stroke:#4e4e4e;stroke-opacity:1;stroke-width:5;stroke-linejoin:miter;stroke-miterlimit:2;stroke-linecap:round;fill:none;"/>
        </g>
    </g>
</svg>
