<?xml version="1.0" encoding="utf-8"?>
<svg viewBox="-39 -6 52 52" xmlns="http://www.w3.org/2000/svg">
  <defs>
    <style id="bx-google-fonts">@import url(https://fonts.googleapis.com/css?family=Roboto:100,300,500,700,900,100italic,300italic,400,400italic,500italic,700italic,900italic);</style>
    <pattern id="pattern-0" x="0" y="0" width="20" height="20" patternUnits="userSpaceOnUse" viewBox="0 0 100 100">
      <path d="M 0 0 L 50 0 L 50 100 L 0 100 Z" style="fill: black;"/>
    </pattern>
  </defs>
  <path d="M 100.26 52.923 Z" style="stroke: black; fill: none;"/>
  <text x="196.867" y="200.731" style="font-size: 36; font-family: Roboto; white-space: pre;"> </text>
  <ellipse cx="-11.809" cy="19.15" rx="23.894" ry="23.825" style="stroke-linejoin: round; fill: none; stroke-width: 4; stroke-linecap: round; stroke: rgb(255, 255, 255);" transform="matrix(1, -0.000061, 0.003032, 1, -1.178605, 0.840736)"/>
  <path d="M -26.46 33.133 C -26.756 33.773 -13.724 4.723 -13.316 4.739 L -13.316 5.987 L -13.316 6.557" style="fill: none; stroke-linecap: square; stroke-width: 4; stroke: rgb(255, 255, 255);"/>
  <path d="M -20.937 21.364 L -13.449 21.364" style="fill: none; stroke-width: 4; stroke: rgb(255, 255, 255);"/>
  <path d="M -7.792 33.352 L -8.024 33.352 L -3.55 33.352 L -0.934 29.673 L 0.418 27.773 L 4.625 21.86 L -2.934 21.86" style="fill: none; stroke-width: 4; stroke-linecap: round; stroke-linejoin: round; stroke: rgb(255, 255, 255);"/>
  <path d="M -9.016 3.748 L -9.016 33.748" style="fill: none; stroke-width: 2; stroke-linecap: round; stroke-linejoin: round; stroke: rgb(255, 255, 255);"/>
  <defs>
    <style id="bx-google-fonts">@import url(https://fonts.googleapis.com/css?family=Roboto:100,100italic,300,300italic,400,400italic,500,500italic,700,700italic,900,900italic);</style>
  </defs>
  <path d="M -11.775 4.554 L -11.775 34.754" style="fill: none; stroke-linecap: round; stroke: rgb(255, 255, 255);"/>
  <path d="M -24.657 3.755" style="fill: none; stroke: black;"/>
</svg>