<?xml version="1.0"?>
<svg version="1.1" xmlns="http://www.w3.org/2000/svg" xmlns:xlink="http://www.w3.org/1999/xlink" width="650" height="400">
    <desc iVinci="yes" version="4.6" gridStep="1" showGrid="no" snapToGrid="no" codePlatform="0" markedExportShape="2"/>
    <g id="Layer1" name="Layer 1" opacity="1">
        <g id="Shape1">
            <desc shapeID="1" type="2" basicInfo-basicType="0" basicInfo-roundedRectRadius="12" basicInfo-polygonSides="6" basicInfo-starPoints="5" bounding="rect(-214.5,-110.5,429,221)" text="{A:G}" font-familyName="American Typewriter" font-pixelSize="225" font-bold="0" font-underline="0" font-alignment="1" strokeStyle="0" markerStart="0" markerEnd="0" shadowEnabled="0" shadowOffsetX="0" shadowOffsetY="2" shadowBlur="4" shadowOpacity="160" blurEnabled="0" blurRadius="4" transform="matrix(1,0,0,1,328.062,180.599)" pers-center="0,0" pers-size="0,0" pers-start="0,0" pers-end="0,0" locked="0" mesh="" flag=""/>
            <path id="shapePath1" d="M82.937,172.265 C82.937,179.615 81.962,185.127 80.012,188.802 C78.062,192.477 74.462,195.74 69.212,198.59 C74.312,201.29 77.8745,204.627 79.8995,208.602 C81.9245,212.577 82.937,218.09 82.937,225.14 L82.937,261.365 C82.937,269.615 84.362,275.052 87.212,277.677 C90.062,280.302 95.837,281.615 104.537,281.615 L104.537,295.79 L98.012,295.79 C86.612,295.79 78.512,293.277 73.712,288.252 C68.912,283.227 66.512,274.715 66.512,262.715 L66.512,225.59 C66.512,219.14 65.537,214.34 63.587,211.19 C61.637,208.04 58.337,205.865 53.687,204.665 L53.687,191.39 C62.237,188.99 66.512,182.315 66.512,171.365 L66.512,131.765 C66.512,120.815 69.0245,112.94 74.0495,108.14 C79.0745,103.34 87.137,100.94 98.237,100.94 L104.537,100.94 L104.537,115.115 C95.837,115.265 90.062,116.615 87.212,119.165 C84.362,121.715 82.937,126.89 82.937,134.69 L82.937,172.265 M251.237,228.065 L243.137,206.015 C242.237,203.615 241.3,202.115 240.325,201.515 C239.35,200.915 237.362,200.615 234.362,200.615 L194.312,200.615 C191.312,200.615 189.25,201.14 188.125,202.19 C187,203.24 185.537,206.09 183.737,210.74 L177.212,228.065 C176.612,229.715 176.312,231.29 176.312,232.79 C176.312,237.59 179.237,239.99 185.087,239.99 C186.587,239.99 188.725,239.84 191.5,239.54 C194.275,239.24 196.337,239.09 197.687,239.09 C203.837,239.09 206.912,241.715 206.912,246.965 C206.912,251.915 203.537,254.39 196.787,254.39 C195.587,254.39 193.937,254.24 191.837,253.94 L180.587,252.365 C178.487,252.065 175.037,251.915 170.237,251.915 C164.987,251.915 161.312,252.065 159.212,252.365 L149.762,253.715 C145.562,254.315 142.487,254.615 140.537,254.615 C134.687,254.615 131.762,252.14 131.762,247.19 C131.762,241.94 134.612,239.315 140.312,239.315 C141.512,239.315 142.412,239.39 143.012,239.54 L145.937,239.54 C149.987,239.54 153.062,237.965 155.162,234.815 C156.062,233.615 157.562,230.09 159.662,224.24 L201.512,111.065 C203.912,104.765 208.637,101.615 215.687,101.615 C222.587,101.615 227.162,104.765 229.412,111.065 L269.687,222.665 C272.237,229.715 274.562,234.365 276.662,236.615 C278.762,238.865 281.762,239.99 285.662,239.99 C286.862,239.99 287.762,239.915 288.362,239.765 C292.562,239.465 294.662,239.315 294.662,239.315 C300.362,239.315 303.212,241.715 303.212,246.515 C303.212,251.615 300.362,254.165 294.662,254.165 C293.012,254.165 290.837,254.015 288.137,253.715 C278.687,252.665 271.637,252.14 266.987,252.14 C261.437,252.14 252.437,252.74 239.987,253.94 C236.837,254.24 234.437,254.39 232.787,254.39 C226.787,254.39 223.787,251.84 223.787,246.74 C223.787,241.64 227.087,239.09 233.687,239.09 C235.037,239.09 237.025,239.24 239.65,239.54 C242.275,239.84 244.262,239.99 245.612,239.99 C250.562,239.99 253.037,237.965 253.037,233.915 C253.037,233.315 252.437,231.365 251.237,228.065 M235.037,182.165 L214.787,120.065 L194.087,182.165 C193.787,183.065 193.637,183.59 193.637,183.74 C193.637,185.09 194.762,185.765 197.012,185.765 L232.787,185.765 C234.587,185.765 235.487,185.165 235.487,183.965 C235.487,183.665 235.337,183.065 235.037,182.165 M332.006,257.315 C328.106,257.315 324.806,255.927 322.106,253.152 C319.406,250.377 318.056,247.04 318.056,243.14 C318.056,239.24 319.406,235.902 322.106,233.127 C324.806,230.352 328.106,228.965 332.006,228.965 C335.906,228.965 339.206,230.352 341.906,233.127 C344.606,235.902 345.956,239.24 345.956,243.14 C345.956,247.04 344.606,250.377 341.906,253.152 C339.206,255.927 335.906,257.315 332.006,257.315 M332.006,181.265 C328.106,181.265 324.806,179.877 322.106,177.102 C319.406,174.327 318.056,170.99 318.056,167.09 C318.056,163.19 319.406,159.852 322.106,157.077 C324.806,154.302 328.106,152.915 332.006,152.915 C335.906,152.915 339.206,154.302 341.906,157.077 C344.606,159.852 345.956,163.19 345.956,167.09 C345.956,170.99 344.606,174.327 341.906,177.102 C339.206,179.877 335.906,181.265 332.006,181.265 M438.203,98.4646 C453.203,98.4646 466.778,104.09 478.928,115.34 C478.628,113.24 478.478,112.04 478.478,111.74 C478.178,108.74 478.028,107.09 478.028,106.79 C478.028,101.84 480.503,99.3646 485.453,99.3646 C490.853,99.3646 493.553,102.59 493.553,109.04 C493.553,111.14 493.478,112.715 493.328,113.765 L491.753,124.565 C491.303,127.715 491.078,131.09 491.078,134.69 C491.078,137.54 491.378,143.615 491.978,152.915 C491.978,152.915 491.978,153.59 491.978,154.94 C491.978,161.69 489.203,165.065 483.653,165.065 C478.403,165.065 475.778,161.39 475.778,154.04 L475.778,147.29 C475.778,136.94 472.365,128.765 465.54,122.765 C458.715,116.765 449.528,113.765 437.978,113.765 C423.428,113.765 412.028,119.39 403.778,130.64 C395.528,141.89 391.403,157.34 391.403,176.99 C391.403,197.84 395.64,214.115 404.115,225.815 C412.59,237.515 424.328,243.365 439.328,243.365 C450.878,243.365 459.803,239.99 466.103,233.24 C472.403,226.49 475.553,216.89 475.553,204.44 C475.553,199.34 474.69,195.777 472.965,193.752 C471.24,191.727 468.203,190.715 463.853,190.715 C462.653,190.715 460.928,190.79 458.678,190.94 C456.428,191.09 454.703,191.165 453.503,191.165 C446.303,191.165 442.703,188.615 442.703,183.515 C442.703,178.265 445.778,175.64 451.928,175.64 C453.878,175.64 456.053,175.79 458.453,176.09 C467.903,177.29 475.478,177.89 481.178,177.89 C488.528,177.89 496.328,177.215 504.578,175.865 C506.378,175.565 508.403,175.415 510.653,175.415 C516.653,175.415 519.653,177.89 519.653,182.84 C519.653,184.94 518.865,186.74 517.29,188.24 C515.715,189.74 513.878,190.49 511.778,190.49 C509.978,190.49 508.628,190.415 507.728,190.265 C507.428,190.265 506.903,190.19 506.153,190.04 C505.403,190.04 504.803,190.04 504.353,190.04 C497.753,190.04 494.453,197.39 494.453,212.09 L494.453,230.09 C494.453,233.99 494.603,237.515 494.903,240.665 C495.203,243.815 495.353,246.29 495.353,248.09 C495.353,254.24 492.653,257.315 487.253,257.315 C482.003,257.315 479.378,254.69 479.378,249.44 C479.378,249.44 479.528,247.64 479.828,244.04 C479.978,242.69 480.128,240.365 480.278,237.065 C476.828,241.715 474.128,244.94 472.178,246.74 C463.478,254.54 451.403,258.44 435.953,258.44 C416.603,258.44 401.003,251.24 389.153,236.84 C377.303,222.44 371.378,203.615 371.378,180.365 C371.378,155.465 377.415,135.59 389.49,120.74 C401.565,105.89 417.803,98.4646 438.203,98.4646 M575.678,224.465 C575.678,217.265 576.653,211.79 578.603,208.04 C580.553,204.29 584.153,200.99 589.403,198.14 C584.303,195.44 580.74,192.102 578.715,188.127 C576.69,184.152 575.678,178.64 575.678,171.59 L575.678,135.365 C575.678,127.115 574.253,121.677 571.403,119.052 C568.553,116.427 562.778,115.115 554.078,115.115 L554.078,100.94 L560.378,100.94 C571.778,100.94 579.915,103.452 584.79,108.477 C589.665,113.502 592.103,122.015 592.103,134.015 L592.103,171.14 C592.103,182.99 596.378,189.965 604.928,192.065 L604.928,205.34 C596.378,207.74 592.103,214.415 592.103,225.365 L592.103,264.965 C592.103,275.915 589.628,283.79 584.678,288.59 C579.728,293.39 571.628,295.79 560.378,295.79 L554.078,295.79 L554.078,281.615 C562.778,281.465 568.553,280.115 571.403,277.565 C574.253,275.015 575.678,269.84 575.678,262.04 L575.678,224.465 Z" style="stroke:none;fill-rule:nonzero;fill:#5f96ac;fill-opacity:1;"/>
        </g>
        <g id="Shape2">
            <desc shapeID="2" type="0" basicInfo-basicType="0" basicInfo-roundedRectRadius="12" basicInfo-polygonSides="6" basicInfo-starPoints="5" bounding="rect(-74.5002,-53.4999,149,107)" text="" font-familyName="American Typewriter" font-pixelSize="260" font-bold="0" font-underline="0" font-alignment="1" strokeStyle="0" markerStart="0" markerEnd="0" shadowEnabled="0" shadowOffsetX="0" shadowOffsetY="2" shadowBlur="4" shadowOpacity="160" blurEnabled="0" blurRadius="4" transform="matrix(4.30204,0,0,3.67256,325.497,200.482)" pers-center="0,0" pers-size="0,0" pers-start="0,0" pers-end="0,0" locked="0" mesh="" flag=""/>
            <path id="shapePath2" d="M4.99472,48.0706 C4.99472,23.731 28.1077,3.99988 56.6192,3.99988 L594.375,3.99988 C622.886,3.99988 645.999,23.731 645.999,48.0706 L645.999,352.893 C645.999,377.233 622.886,396.963 594.375,396.963 L56.6192,396.963 C28.1077,396.963 4.99472,377.233 4.99472,352.893 L4.99472,48.0706 Z" style="stroke:#5f96ac;stroke-opacity:1;stroke-width:6;stroke-linejoin:miter;stroke-miterlimit:2;stroke-linecap:round;fill:none;"/>
        </g>
    </g>
</svg>
